<svg id="Layer_1" xmlns="http://www.w3.org/2000/svg" width="195.2" height="61" viewBox="0 0 195.2 61"><style><![CDATA[
	.st0{fill:#B9B8B8;}
	.st1{fill:#FFFFFF;stroke:#B9B8B8;stroke-miterlimit:10;}
	.st2{fill:#FFFFFF;}
	.st3{fill:#F1F1F2;stroke:#B9B8B8;stroke-miterlimit:10;}
]]></style><path class="st0" d="M19.5 31.7h2.8v.9h-2.8zm5.5 0h2.8v.9H25zm5.6 0h2.8v.9h-2.8zm5.6 0H39v.9h-2.8zm5.5 0h2.8v.9h-2.8zm5.6 0h2.8v.9h-2.8zm-44.6 0h2.8v.9H2.7zm5.6 0h2.8v.9H8.3zm5.6 0h2.8v.9h-2.8zm164.7 0h2.8v.9h-2.8zm5.6 0h2.8v.9h-2.8zm5.5 0h2.8v.9h-2.8zm-39 0h2.8v.9h-2.8zm5.6 0h2.8v.9h-2.8zm5.6 0h2.8v.9h-2.8zm5.5 0h2.8v.9h-2.8zm5.6 0h2.8v.9H173z"/><path class="st1" d="M150.7 32.3c.5-4-28.7-10.6-81.3-9.3-3.3 3-3.6 4.6-3.6 4.6l-15.7-2.1V39l15.8-2s.3 1.7 3.6 4.6c52.5 1.3 81.7-5.3 81.2-9.3z"/><path class="st0" d="M-2.2-29.1H.6v.9h-2.8zm5.6 0h2.8v.9H3.4zm5.5 0h2.8v.9H8.9zm5.6 0h2.8v.9h-2.8zm5.6 0h2.8v.9h-2.8zm33.6 0h2.8v.9h-2.8zm5.6 0h2.8v.9h-2.8zm5.5 0h2.8v.9h-2.8zm5.6 0h2.8v.9h-2.8zm-44.6 0h2.8v.9h-2.8zm5.6 0h2.8v.9h-2.8zm5.6 0h2.8v.9H37zm5.5 0h2.8v.9h-2.8zm5.6 0h2.8v.9h-2.8zm94.7 0h2.8v.9h-2.8zm5.5 0h2.8v.9h-2.8zm5.6 0h2.8v.9h-2.8zm5.6 0h2.8v.9h-2.8zm5.5 0h2.8v.9H165zm5.6 0h2.8v.9h-2.8zm-44.6 0h2.8v.9H126zm5.6 0h2.8v.9h-2.8zm5.6 0h2.8v.9h-2.8zm39.2 0h2.8v.9h-2.8zm5.5 0h2.8v.9h-2.8zm5.6 0h2.8v.9h-2.8zm5.6 0h2.8v.9h-2.8z"/><path class="st2" d="M124.5-31.4h-3.8c-.1-.3-.2-.5-.3-.8-1.9-2.8-7.9-4-12.1-6.5-4.1-2.4-9.7-6.2-12.8-6.9-17.1-4.2-21.6 10.2-22 11.4-1.1 3.4-1.8 8.3 1 13.2v.1c2.1 4.3 7.8 12.1 21 8.9 3.1-.6 8.7-4.4 12.8-6.9 4.1-2.4 10.2-3.7 12.1-6.5.1-.2.1-.4.2-.6h4.2c.9-.4 1.7-1.4 1.7-3s-2-2.4-2-2.4z"/><path class="st0" d="M-2.4 99.8H.4v.9h-2.8zm5.6 0H6v.9H3.2zm5.5 0h2.8v.9H8.7zm5.6 0h2.8v.9h-2.8zm5.6 0h2.8v.9h-2.8zm5.5 0h2.8v.9h-2.8zm33.7 0h2.8v.9h-2.8zm5.5 0h2.8v.9h-2.8zm5.6 0H73v.9h-2.8zm-39 0H34v.9h-2.8zm5.6 0h2.8v.9h-2.8zm5.5 0h2.8v.9h-2.8zm5.6 0h2.8v.9h-2.8zm5.5 0h2.8v.9h-2.8zm83.7 0h2.8v.9h-2.8zm5.6 0h2.8v.9h-2.8zm5.6 0h2.8v.9h-2.8zm5.5 0h2.8v.9h-2.8zm5.6 0h2.8v.9h-2.8zm5.6 0h2.8v.9H165zm-44.6 0h2.8v.9h-2.8zm5.6 0h2.8v.9H126zm5.5 0h2.8v.9h-2.8zm39.2 0h2.8v.9h-2.8zm5.6 0h2.8v.9h-2.8zm5.6 0h2.8v.9h-2.8zm5.5 0h2.8v.9h-2.8zm5.6 0h2.8v.9H193z"/><path class="st3" d="M103.3 84.6s-7.1-5.8-15.9-3.2c-8.8 2.7-8.9 11.9-8.9 11.9v1h-6.8v11.8h6.8v1.2s.1 9.3 8.9 11.9c8.8 2.7 15.9-3.2 15.9-3.2s11.9-13.7 17.2-13.9v-3.8c-5.3 0-17.2-13.7-17.2-13.7z"/><path class="st0" d="M124.8-25.9c.2 0 .5 0 .8-.1.9-.7 1.5-1.7 1.5-3 0-.7-.3-1.2-.6-1.7-.4-.4-1-1-1.8-1.3h-3.5c-.1-.2-.1-.3-.2-.6-1.3-1.8-4.1-3-7.1-4.2-1.8-.7-3.6-1.5-5.1-2.4-.9-.5-1.9-1.2-2.9-1.8-3.7-2.3-7.6-4.6-10-5.2-2.1-.5-4.1-.8-6-.8-12.7 0-16.3 11.3-16.7 12.6-1.1 3.4-1.9 8.6 1.1 13.7 1.8 3.7 6.2 9.9 15.6 9.9 1.9 0 3.9-.3 6-.8 2.5-.5 6.3-2.9 10-5.2 1-.6 2-1.2 2.9-1.8 1.5-.9 3.4-1.7 5.1-2.4 3-1.2 5.8-2.7 7.2-4.7 0-.1.1-.5.1-.5h3.7l-.1.3zm-4.5-1.1l-.2.8c0 .1-.1.4-.1.4-1.1 1.6-3.8 2.7-6.6 3.9-1.8.7-3.7 1.5-5.3 2.5-.9.5-1.9 1.2-3 1.8-3.5 2.1-7.4 4.6-9.7 5-2 .5-3.9.7-5.7.7-8.7 0-12.9-5.8-14.6-9.3l-.1-.1c-2.7-4.7-2-9.5-.9-12.7.3-1.2 3.7-11.8 15.5-11.8 1.8 0 3.7.2 5.8.7 2.3.5 6.2 2.9 9.7 5l3 1.8c1.6.9 3.5 1.7 5.3 2.5 2.8 1.2 5.5 2.3 6.5 3.7.1.3.2 1 .3 1.2l.1.8h4c.4 0 1.6.2 1.6 1.3 0 1.5-.7 1.7-1.3 1.7h-4.3z"/></svg>