<?xml version="1.0" encoding="utf-8"?>
<!-- Generator: Adobe Illustrator 16.0.0, SVG Export Plug-In . SVG Version: 6.00 Build 0)  -->
<!DOCTYPE svg PUBLIC "-//W3C//DTD SVG 1.1//EN" "http://www.w3.org/Graphics/SVG/1.1/DTD/svg11.dtd">
<svg version="1.1" id="Layer_1" xmlns="http://www.w3.org/2000/svg" xmlns:xlink="http://www.w3.org/1999/xlink" x="0px" y="0px"
	 width="195.2px" height="61px" viewBox="0 0 195.2 61" style="enable-background:new 0 0 195.2 61;" xml:space="preserve">
<style type="text/css">
<![CDATA[
	.st0{fill:#B9B8B8;}
	.st1{fill:#FFFFFF;stroke:#B9B8B8;stroke-miterlimit:10;}
	.st2{fill:#FFFFFF;}
	.st3{fill:#F1F1F2;stroke:#B9B8B8;stroke-miterlimit:10;}
]]>
</style>
<rect x="19.5" y="-86.7" class="st0" width="2.8" height="0.9"/>
<rect x="25" y="-86.7" class="st0" width="2.8" height="0.9"/>
<rect x="30.6" y="-86.7" class="st0" width="2.8" height="0.9"/>
<rect x="36.2" y="-86.7" class="st0" width="2.8" height="0.9"/>
<rect x="41.7" y="-86.7" class="st0" width="2.8" height="0.9"/>
<rect x="47.3" y="-86.7" class="st0" width="2.8" height="0.9"/>
<rect x="2.7" y="-86.7" class="st0" width="2.8" height="0.9"/>
<rect x="8.3" y="-86.7" class="st0" width="2.8" height="0.9"/>
<rect x="13.9" y="-86.7" class="st0" width="2.8" height="0.9"/>
<rect x="178.6" y="-86.7" class="st0" width="2.8" height="0.9"/>
<rect x="184.2" y="-86.7" class="st0" width="2.8" height="0.9"/>
<rect x="189.7" y="-86.7" class="st0" width="2.8" height="0.9"/>
<rect x="150.7" y="-86.7" class="st0" width="2.8" height="0.9"/>
<rect x="156.3" y="-86.7" class="st0" width="2.8" height="0.9"/>
<rect x="161.9" y="-86.7" class="st0" width="2.8" height="0.9"/>
<rect x="167.4" y="-86.7" class="st0" width="2.8" height="0.9"/>
<rect x="173" y="-86.7" class="st0" width="2.8" height="0.9"/>
<path class="st1" d="M150.7-86L150.7-86c0.5-4-28.7-10.6-81.3-9.3c-3.3,3-3.6,4.6-3.6,4.6l-15.7-2.1v6.7h0v0h0v6.7l15.7-2.1
	c0,0,0.3,1.7,3.6,4.6C122-75.4,151.2-82,150.7-86L150.7-86C150.7-86,150.7-86,150.7-86z"/>
<rect x="-2.2" y="30.6" class="st0" width="2.8" height="0.9"/>
<rect x="3.4" y="30.6" class="st0" width="2.8" height="0.9"/>
<rect x="8.9" y="30.6" class="st0" width="2.8" height="0.9"/>
<rect x="14.5" y="30.6" class="st0" width="2.8" height="0.9"/>
<rect x="20.1" y="30.6" class="st0" width="2.8" height="0.9"/>
<rect x="53.7" y="30.6" class="st0" width="2.8" height="0.9"/>
<rect x="59.3" y="30.6" class="st0" width="2.8" height="0.9"/>
<rect x="64.8" y="30.6" class="st0" width="2.8" height="0.9"/>
<rect x="70.4" y="30.6" class="st0" width="2.8" height="0.9"/>
<rect x="25.8" y="30.6" class="st0" width="2.8" height="0.9"/>
<rect x="31.4" y="30.6" class="st0" width="2.8" height="0.9"/>
<rect x="37" y="30.6" class="st0" width="2.8" height="0.9"/>
<rect x="42.5" y="30.6" class="st0" width="2.8" height="0.9"/>
<rect x="48.1" y="30.6" class="st0" width="2.8" height="0.9"/>
<rect x="142.8" y="30.6" class="st0" width="2.8" height="0.9"/>
<rect x="148.3" y="30.6" class="st0" width="2.8" height="0.9"/>
<rect x="153.9" y="30.6" class="st0" width="2.8" height="0.9"/>
<rect x="159.5" y="30.6" class="st0" width="2.8" height="0.9"/>
<rect x="165" y="30.6" class="st0" width="2.8" height="0.9"/>
<rect x="170.6" y="30.6" class="st0" width="2.8" height="0.9"/>
<rect x="126" y="30.6" class="st0" width="2.8" height="0.9"/>
<rect x="131.6" y="30.6" class="st0" width="2.8" height="0.9"/>
<rect x="137.2" y="30.6" class="st0" width="2.8" height="0.9"/>
<rect x="176.4" y="30.6" class="st0" width="2.8" height="0.9"/>
<rect x="181.9" y="30.6" class="st0" width="2.8" height="0.9"/>
<rect x="187.5" y="30.6" class="st0" width="2.8" height="0.9"/>
<rect x="193.1" y="30.6" class="st0" width="2.8" height="0.9"/>
<path class="st2" d="M124.5,28.2L124.5,28.2l-3.8,0c-0.1-0.3-0.2-0.5-0.3-0.8c-1.9-2.8-7.9-4-12.1-6.5c-4.1-2.4-9.7-6.2-12.8-6.9
	C78.5,9.9,74,24.3,73.6,25.5c-1.1,3.4-1.8,8.3,1,13.2c0,0,0,0,0,0.1c2.1,4.3,7.8,12.1,21,8.9c3.1-0.6,8.7-4.4,12.8-6.9
	c4.1-2.4,10.2-3.7,12.1-6.5c0.1-0.2,0.1-0.4,0.2-0.6h4.2c0.9-0.4,1.7-1.4,1.7-3C126.5,29.1,124.5,28.2,124.5,28.2z"/>
<g>
	<rect x="-2.4" y="99.8" class="st0" width="2.8" height="0.9"/>
	<rect x="3.2" y="99.8" class="st0" width="2.8" height="0.9"/>
	<rect x="8.7" y="99.8" class="st0" width="2.8" height="0.9"/>
	<rect x="14.3" y="99.8" class="st0" width="2.8" height="0.9"/>
	<rect x="19.9" y="99.8" class="st0" width="2.8" height="0.9"/>
	<rect x="25.4" y="99.8" class="st0" width="2.8" height="0.9"/>
	<rect x="59.1" y="99.8" class="st0" width="2.8" height="0.9"/>
	<rect x="64.6" y="99.8" class="st0" width="2.8" height="0.9"/>
	<rect x="70.2" y="99.8" class="st0" width="2.8" height="0.9"/>
	<rect x="31.2" y="99.8" class="st0" width="2.8" height="0.9"/>
	<rect x="36.8" y="99.8" class="st0" width="2.8" height="0.9"/>
	<rect x="42.3" y="99.8" class="st0" width="2.8" height="0.9"/>
	<rect x="47.9" y="99.8" class="st0" width="2.8" height="0.9"/>
	<rect x="53.4" y="99.8" class="st0" width="2.8" height="0.9"/>
	<rect x="137.1" y="99.8" class="st0" width="2.8" height="0.9"/>
	<rect x="142.7" y="99.8" class="st0" width="2.8" height="0.9"/>
	<rect x="148.3" y="99.8" class="st0" width="2.8" height="0.9"/>
	<rect x="153.8" y="99.8" class="st0" width="2.8" height="0.9"/>
	<rect x="159.4" y="99.8" class="st0" width="2.8" height="0.9"/>
	<rect x="165" y="99.8" class="st0" width="2.8" height="0.9"/>
	<rect x="120.4" y="99.8" class="st0" width="2.8" height="0.9"/>
	<rect x="126" y="99.8" class="st0" width="2.8" height="0.9"/>
	<rect x="131.5" y="99.8" class="st0" width="2.8" height="0.9"/>
	<rect x="170.7" y="99.8" class="st0" width="2.8" height="0.9"/>
	<rect x="176.3" y="99.8" class="st0" width="2.8" height="0.9"/>
	<rect x="181.9" y="99.8" class="st0" width="2.8" height="0.9"/>
	<rect x="187.4" y="99.8" class="st0" width="2.8" height="0.9"/>
	<rect x="193" y="99.8" class="st0" width="2.8" height="0.9"/>
	<path class="st3" d="M103.3,84.6c0,0-7.1-5.8-15.9-3.2c-8.8,2.7-8.9,11.9-8.9,11.9v1h-6.8v11.8h6.8v1.2c0,0,0.1,9.3,8.9,11.9
		c8.8,2.7,15.9-3.2,15.9-3.2s11.9-13.7,17.2-13.9c0-0.1,0-0.2,0-0.3c0-0.8,0-1.8,0-3.2c0-0.1,0-0.2,0-0.3
		C115.2,98.3,103.3,84.6,103.3,84.6z"/>
</g>
<path class="st0" d="M121.3,28.7c0-0.6-0.3-1.3-0.5-1.8c-1.3-1.8-4.1-2.9-7-4.1c-1.8-0.7-3.6-1.5-5.1-2.4c-0.9-0.5-1.9-1.2-2.9-1.8
	c-3.7-2.3-7.6-4.6-10-5.2c-2.1-0.5-4.1-0.8-6-0.8c-12.7,0-16.3,11.3-16.7,12.6c-1.1,3.4-1.9,8.6,1.1,13.7c1.8,3.7,6.2,10,15.6,10
	c1.9,0,3.9-0.3,6-0.8c2.5-0.5,6.3-2.9,10-5.2c1-0.6,2-1.2,2.9-1.8c1.5-0.9,3.4-1.7,5.1-2.4c3-1.2,5.8-2.6,7.2-4.5
	c0-0.1,0.1-0.4,0.1-0.4h3.7l0,0c0.2,0,0.5-0.1,0.8-0.2c0.9-0.7,1.5-1.7,1.5-3.1C126.5,28.5,123.7,28.7,121.3,28.7z M124.7,33h-4.4
	l-0.2,0.6c0,0.1-0.1,0.3-0.1,0.3c-1.1,1.6-3.8,2.7-6.6,3.8c-1.8,0.7-3.7,1.5-5.3,2.5c-0.9,0.5-1.9,1.2-3,1.8c-3.5,2.1-7.4,4.5-9.7,5
	c-2,0.5-3.9,0.7-5.7,0.7c-8.7,0-12.9-5.8-14.6-9.3l-0.1-0.1c-2.7-4.7-2-9.5-0.9-12.7c0.3-1.2,3.7-11.8,15.5-11.8
	c1.8,0,3.7,0.2,5.8,0.7c2.3,0.5,6.2,2.9,9.7,5c1,0.6,2,1.2,3,1.8c1.6,0.9,3.5,1.7,5.3,2.5c2.8,1.2,5.5,2.3,6.5,3.7
	c0.1,0.3,0.2,1.1,0.3,1.4l0.1,1h4c0.4,0,1.6,0.2,1.6,1.3C126,32.7,125.2,33,124.7,33z"/>
</svg>
