<svg id="Layer_1" xmlns="http://www.w3.org/2000/svg" viewBox="0 0 190 100"><style>.st0{fill:#666666;} .st1{fill:#F7323F;} .st2{fill:#FF5000;} .st3{fill:#3FAE2A;} .st4{fill:#FFB819;} .st5{fill:#430098;} .st6{fill-rule:evenodd;clip-rule:evenodd;fill:#808285;} .st7{fill:none;} .st8{fill:#6D6E71;} .st9{font-family:&apos;Baskerville-Italic&apos;;} .st10{font-size:13.441px;}</style><g id="XMLID_3_"><g id="XMLID_6_"><g id="XMLID_50_"><g id="XMLID_51_"><g id="XMLID_57_"><path id="XMLID_61_" class="st0" d="M54.8 55.1c-3.4-1.3-7.1-.1-9.1 2.8l-13.1-5.1c-.8-.3-1.8 0-2.2.8L28 58l-.2.3-4.1 7.8c0 .1-.1.1-.2.1h-.2c-.1 0-.3-.1-.3-.3V50.3c0-.7-.5-1.4-1.1-1.7L4 41.7c-.9-.4-2 .1-2.3 1-.3.9 0 1.8.8 2.3l16.9 6.6-.3-.1c.2.1.3.3.3.5v16c0 1 .8 1.8 1.8 1.8h3.5c.7 0 1.3-.4 1.6-.9l4.9-9.3 1.2-2.3c.2-.3.5-.4.8-.3l11.1 4.3c-.5 3.5 1.4 6.9 4.8 8.3 4 1.5 8.4-.4 10-4.4 1.6-4.1-.3-8.5-4.3-10.1zm.9 8.6c-.8 2-3.1 3.1-5.1 2.3-2-.8-3.1-3.1-2.3-5.1.8-2 3.1-3.1 5.1-2.3 2.1.8 3.1 3.1 2.3 5.1z"/><path id="XMLID_60_" class="st0" d="M21.3 32.6c-.5 0-1 .2-1.3.5-.4.3-.5.8-.5 1.3v4.7h39.9c3.3-.3 5.9-3.1 5.9-6.5h-44z"/><path id="XMLID_59_" class="st0" d="M21.2 46.6c-.5 0-.9-.2-1.3-.6-.3-.4-.5-.8-.5-1.3v-3.9h38.3c0 3.2-2.4 5.5-5.3 5.8H21.2z"/><path id="XMLID_58_" class="st0" d="M27.5 48.3c-.1 0-.3.1-.3.3 0 .1 0 .3.1.3l16.9 6.6c3.6 0 6.6-3.2 6.6-7.2H27.5z"/></g><circle id="XMLID_56_" class="st1" cx="42.3" cy="23.2" r="7.6"/><circle id="XMLID_55_" class="st2" cx="25.3" cy="23.2" r="7.6"/><circle id="XMLID_54_" class="st3" cx="59.3" cy="23.2" r="7.6"/><circle id="XMLID_53_" class="st4" cx="33.8" cy="8.4" r="7.6"/><circle id="XMLID_52_" class="st5" cx="50.8" cy="8.4" r="7.6"/></g></g><g id="XMLID_7_"><g id="XMLID_41_"><g id="XMLID_48_"><path id="XMLID_49_" class="st6" d="M66.8 61.7H68v6.5c0 1 .2 1.9 1.7 1.9.9 0 1.9-.5 2.3-1.3l-.3-.2c-.3.4-.6.8-1.2.8-.8 0-.8-.6-.8-1v-6.6h1.9v-.5h-1.9v-2.8c-.5.1-1.1.1-1.6.1v2.7h-1.3v.4z"/></g><g id="XMLID_46_"><path id="XMLID_47_" class="st6" d="M74.3 69.3h-1.2v.5h4v-.5H76v-4c0-1.6 1.1-3.6 2.6-3.6.9 0 1.4.2 1.4 1.8v5.9h-1.1v.5h4v-.5h-1.2v-6.1c0-2-1.8-2.2-2.6-2.2-1.6 0-2.4.9-3 2.3v-8.6c-.8.2-1.6.2-2.4.2h-.5v.5h1.2v13.8z"/></g><g id="XMLID_42_"><path id="XMLID_43_" class="st6" d="M90.7 67.1c-.3 1.4-1.8 2.5-3 2.5-2.4 0-2.6-1.7-2.6-3.9v-.9h6.1c0-2.4-1.7-3.9-3.9-3.9-2.6 0-4.3 2.3-4.3 4.9 0 2.4 2.1 4.2 4.3 4.2 1.9 0 3.4-1 3.8-3h-.4zm-5.6-2.9c0-.5.1-1 .2-1.4 0-.2.6-1.4 1.9-1.4 1.1 0 2 .5 2 2.1v.7h-4.1z"/></g></g><g id="XMLID_26_"><g id="XMLID_39_"><path id="XMLID_40_" class="st6" d="M101.1 61.2v-2.5c0-2.2.7-3.4 1.7-3.4.2 0 .5 0 .5.1 0 .3-.2.3-.2.5 0 .6.3 1 .9 1 .4 0 .8-.3.8-.7 0-1-1-1.4-1.8-1.4-2.1 0-3.6 1.6-3.6 5.3v1.1h-1.7v.5h1.7v7.6h-1.7v.5h5.1v-.5h-1.7v-7.6h1.7v-.5h-1.7z"/></g><g id="XMLID_35_"><path id="XMLID_36_" class="st6" d="M108.3 61c-2.3 0-4.2 1.9-4.2 4.5s1.9 4.6 4.2 4.6c2.3 0 4.2-1.9 4.2-4.6-.1-2.6-2-4.5-4.2-4.5zm0 .4c2.2 0 2.2 2.3 2.2 4.1 0 1.8 0 4.1-2.2 4.1s-2.2-2.3-2.2-4.1c0-1.8 0-4.1 2.2-4.1z"/></g><g id="XMLID_31_"><path id="XMLID_32_" class="st6" d="M117.9 61c-2.3 0-4.2 1.9-4.2 4.5s1.9 4.6 4.2 4.6c2.3 0 4.2-1.9 4.2-4.6-.1-2.6-2-4.5-4.2-4.5zm0 .4c2.2 0 2.2 2.3 2.2 4.1 0 1.8 0 4.1-2.2 4.1s-2.2-2.3-2.2-4.1c0-1.8 0-4.1 2.2-4.1z"/></g><g id="XMLID_27_"><path id="XMLID_28_" class="st6" d="M130 63.7c.1.4.2 1.4.2 1.9 0 2.3-.3 2.7-1.1 3.4-.3.2-.9.6-1.5.6-1.8 0-2.2-1.1-2.2-4.4 0-1.5.1-3.8 2.1-3.8 1.9 0 2.4 2 2.5 2.3zm1.7 5.6V54.6c-.8.2-1.6.2-2.4.2h-.7v.5h1.4v7.3c-.6-1.3-1.9-1.6-2.6-1.6-2.6 0-4 2.1-4 4.5 0 2.5 1.6 4.6 3.8 4.6 1.2 0 2.2-.5 2.8-1.6V70c1-.2 1.9-.2 2.9-.2v-.5h-1.2z"/></g></g><g id="XMLID_8_"><g id="XMLID_21_"><path id="XMLID_22_" class="st6" d="M140.3 68.4c-.3 0-.6-.2-.6-.5 0-1.1 2-1.1 4.1-1.4.5 0 2.2-.7 2.2-2.7 0-.6-.3-1.2-.3-1.4 0-.2.3-.5.5-.5s.4.7.7.7c.5 0 .7-.4.7-.8 0-.6-.5-.7-.8-.7-.7 0-1.2.7-1.4 1.2-.6-.8-1.4-1.3-2.7-1.3-2.1 0-3.1 1.6-3.1 3 0 1.2.6 2 1.6 2.5-.8.1-2.2.5-2.2 1.7 0 1.6 1.3 1.7 2.4 1.9v.1c-1.1.3-2.5.9-2.5 2.4 0 .9 1 2.2 4.2 2.2 2.1 0 4.4-1 4.4-3.6 0-.6-.2-1.3-.6-1.8-.7-.8-1.3-.9-4.2-.9h-2.4zm0 3.9c0-.7.7-2.5 3.3-2.5 2.7 0 3.1.6 3.1 1.9 0 .3-.2 2.4-3.8 2.4-1.2.1-2.6-.4-2.6-1.8zm2.6-10.9c1.3 0 1.5 1.3 1.5 2.4 0 1.3-.1 2.5-1.7 2.5-1.2 0-1.4-1.3-1.4-2.3 0-2.1.5-2.6 1.6-2.6z"/></g><g id="XMLID_19_"><path id="XMLID_20_" class="st6" d="M151.4 61c-.8.2-1.6.2-2.4.2h-.7v.5h1.5v7.6h-1.5v.5h4.8v-.5h-1.7v-4.1c0-.9.2-1.7.5-2.3.5-1 1.2-1.3 1.2-1.3.1 0 .2 0 .2.1s-.1.3-.1.5c0 .4.5.9.8.9.5 0 1-.3 1-.8 0-.8-.6-1.2-1.3-1.2-1.2 0-2.1 1.1-2.4 2V61z"/></g><g id="XMLID_15_"><path id="XMLID_16_" class="st6" d="M159.8 61c-2.3 0-4.2 1.9-4.2 4.5s1.9 4.6 4.2 4.6c2.3 0 4.2-1.9 4.2-4.6 0-2.6-1.9-4.5-4.2-4.5zm0 .4c2.2 0 2.2 2.3 2.2 4.1 0 1.8 0 4.1-2.2 4.1s-2.2-2.3-2.2-4.1c0-1.8 0-4.1 2.2-4.1z"/></g><g id="XMLID_13_"><path id="XMLID_14_" class="st6" d="M174.8 69.3h-1.2V61c-.8.2-1.6.2-2.4.2h-.5v.5h1.2v4.9c0 1.6-1.1 2.8-2.6 2.8-.6 0-1.3-.3-1.3-1.6V61c-.8.2-1.6.2-2.4.2h-.4v.5h1.2V68c0 1 .4 2.1 2.6 2.1 1.4 0 2.6-.7 3.1-1.9V70c.8-.1 1.6-.2 2.4-.2h.5v-.5z"/></g><g id="XMLID_9_"><path id="XMLID_10_" class="st6" d="M176.5 74.2h-1.3v.5h4.4v-.5h-1.5v-5.6c.5.9 1.3 1.5 2.5 1.5 2.7 0 4.1-2.2 4.1-4.4 0-3.4-2.4-4.7-4-4.7-1.1 0-2.1.6-2.6 1.7V61c-.4.1-.8.2-1.2.2h-1.7v.5h1.3v12.5zm1.7-10.3c.3-2.1 2-2.4 2.4-2.4 1.6 0 2.2 1 2.2 4.1 0 3.9-1.2 4-2.3 4-.6 0-1.6-.5-2-1.3-.3-.6-.4-1-.4-2.4 0-.6 0-1.3.1-2z"/></g></g></g></g><path id="XMLID_1_" class="st7" d="M4.8 87h263.4v34H4.8z"/><text id="XMLID_4_" transform="translate(4.85 96.007)" class="st8 st9 st10">Formerly Emergency Foodshelf Network</text></g></svg>