<svg id="Layer_1" xmlns="http://www.w3.org/2000/svg" viewBox="0 0 274.2 90"><style>.st0{fill-rule:evenodd;clip-rule:evenodd;fill:#808285;} .st1{fill:#808285;} .st2{fill:#F7323F;} .st3{fill:#FF5000;} .st4{fill:#3FAE2A;} .st5{fill:#FFB819;} .st6{fill:#430098;} .st7{fill:#8B8B8E;}</style><path id="XMLID_59_" class="st0" d="M-28.4-326.9h1v5.2c0 .8.1 1.5 1.4 1.5.7 0 1.5-.4 1.9-1.1l-.3-.2c-.3.3-.5.6-1 .6-.7 0-.7-.5-.7-.8v-5.3h1.5v-.4H-26v-2.2c-.4.1-.9.1-1.3.1v2.1h-1v.5z"/><path id="XMLID_58_" class="st0" d="M-22.3-320.8h-1v.4h3.3v-.4h-1v-3.2c0-1.3.9-2.9 2.1-2.9.7 0 1.1.2 1.1 1.5v4.7h-.9v.4h3.2v-.4h-.9v-4.9c0-1.6-1.4-1.7-2.1-1.7-1.3 0-1.9.7-2.4 1.8v-6.9c-.6.1-1.3.2-1.9.2h-.4v.4h1v11z"/><path id="XMLID_94_" class="st0" d="M-13.7-324.9c0-.4.1-.8.2-1.1 0-.1.5-1.1 1.5-1.1.9 0 1.6.4 1.6 1.7v.6h-3.3zm4.5 2.3c-.2 1.1-1.4 2-2.4 2-1.9 0-2.1-1.4-2.1-3.1v-.7h4.9c0-1.9-1.4-3.1-3.1-3.1-2.1 0-3.4 1.9-3.4 3.9 0 1.9 1.7 3.4 3.5 3.4 1.5 0 2.7-.8 3.1-2.4h-.5z"/><path id="XMLID_55_" class="st0" d="M-25.7-311.9v-2c0-1.7.5-2.7 1.4-2.7.1 0 .4 0 .4.1 0 .2-.1.2-.1.4 0 .5.2.8.7.8.3 0 .6-.2.6-.6 0-.8-.8-1.1-1.5-1.1-1.7 0-2.9 1.3-2.9 4.2v.9h-1.3v.4h1.3v6.1h-1.3v.4h4.1v-.4h-1.4v-6.1h1.4v-.4h-1.4z"/><path id="XMLID_90_" class="st0" d="M-19.9-311.8c1.8 0 1.8 1.8 1.8 3.3 0 1.5 0 3.3-1.8 3.3s-1.8-1.8-1.8-3.3c0-1.4 0-3.3 1.8-3.3m0-.3c-1.8 0-3.4 1.5-3.4 3.6s1.5 3.6 3.4 3.6c1.8 0 3.4-1.5 3.4-3.6-.1-2.1-1.6-3.6-3.4-3.6"/><path id="XMLID_87_" class="st0" d="M-12.2-311.8c1.8 0 1.8 1.8 1.8 3.3 0 1.5 0 3.3-1.8 3.3s-1.8-1.8-1.8-3.3c0-1.4 0-3.3 1.8-3.3m0-.3c-1.8 0-3.4 1.5-3.4 3.6s1.5 3.6 3.4 3.6c1.8 0 3.4-1.5 3.4-3.6s-1.6-3.6-3.4-3.6"/><path id="XMLID_84_" class="st0" d="M-1.1-305.4v-11.7c-.6.1-1.3.2-1.9.2h-.6v.4h1.2v5.8c-.5-1.1-1.5-1.3-2.1-1.3-2.1 0-3.2 1.7-3.2 3.6 0 2 1.3 3.7 3.1 3.7 1 0 1.8-.4 2.3-1.3v1.2c.8-.1 1.5-.1 2.3-.1v-.4h-1.1zm-1.4-4.5c.1.3.1 1.1.1 1.5 0 1.8-.2 2.2-.9 2.7-.2.2-.7.5-1.2.5-1.4 0-1.8-.9-1.8-3.6 0-1.2.1-3 1.7-3 1.7 0 2.1 1.6 2.1 1.9"/><path id="XMLID_80_" class="st0" d="M-25.1-300.1c1 0 1.2 1 1.2 1.9 0 1.1-.1 2-1.4 2-1 0-1.1-1-1.1-1.8 0-1.7.4-2.1 1.3-2.1m-2.1 8.8c0-.6.6-2 2.6-2 2.2 0 2.5.5 2.5 1.5 0 .3-.1 1.9-3.1 1.9-.9 0-2-.3-2-1.4m0-3.2c-.3 0-.5-.2-.5-.4 0-.9 1.6-.9 3.3-1.1.4 0 1.8-.5 1.8-2.2 0-.5-.2-.9-.2-1.1 0-.2.2-.4.4-.4.1 0 .3.5.6.5.4 0 .6-.3.6-.7 0-.5-.4-.6-.7-.6-.6 0-.9.6-1.1 1-.5-.7-1.2-1-2.2-1-1.7 0-2.5 1.3-2.5 2.4 0 1 .5 1.6 1.3 2-.7.1-1.7.4-1.7 1.3 0 1.3 1 1.4 1.9 1.5v.1c-.9.2-2 .7-2 1.9 0 .7.8 1.8 3.3 1.8 1.6 0 3.5-.8 3.5-2.9 0-.5-.1-1-.5-1.4-.6-.6-1-.7-3.4-.7h-1.9z"/><path id="XMLID_45_" class="st0" d="M-18.3-300.4c-.6.2-1.3.2-1.9.2h-.5v.4h1.2v6.1h-1.2v.4h3.9v-.4h-1.3v-3.3c0-.7.2-1.4.4-1.9.4-.8 1-1 1-1 .1 0 .2 0 .2.1s-.1.2-.1.4c0 .3.4.7.7.7.4 0 .8-.2.8-.6 0-.7-.5-1-1.1-1-1 0-1.7.9-2 1.6v-1.7z"/><path id="XMLID_76_" class="st0" d="M-11.5-300.1c1.8 0 1.8 1.8 1.8 3.3 0 1.5 0 3.3-1.8 3.3s-1.8-1.8-1.8-3.3c0-1.5 0-3.3 1.8-3.3m0-.3c-1.8 0-3.4 1.5-3.4 3.6s1.5 3.6 3.4 3.6c1.8 0 3.4-1.5 3.4-3.6-.1-2.1-1.6-3.6-3.4-3.6"/><path id="XMLID_42_" class="st0" d="M.5-293.8h-1v-6.7c-.6.2-1.3.2-1.9.2h-.4v.4h1v3.9c0 1.3-.9 2.3-2.1 2.3-.5 0-1.1-.2-1.1-1.3v-5.5c-.6.2-1.3.2-1.9.2h-.3v.4h.9v5c0 .8.3 1.7 2.1 1.7 1.1 0 2.1-.6 2.5-1.5v1.4c.6-.1 1.3-.1 1.9-.1h.4v-.4z"/><path id="XMLID_69_" class="st1" d="M-41.4-296.4c-.9 2.4-3.6 3.5-6 2.6-2.4-.9-3.5-3.6-2.6-6 .9-2.4 3.6-3.5 6-2.6 2.4.9 3.5 3.6 2.6 6m-1-10.1c-3.9-1.5-8.3-.1-10.6 3.2l-15.2-5.9c-1-.4-2.1 0-2.6 1l-2.7 5.1-.2.4-4.8 9c-.1.1-.2.1-.3.1h-.2c-.2 0-.3-.1-.3-.3V-312c0-.9-.5-1.6-1.3-1.9l-20.7-8.1c-1.1-.4-2.3.1-2.7 1.2-.4 1 0 2.1 1 2.6l19.6 7.6-.4-.2c.2.1.4.3.4.6v18.7c0 1.1.9 2.1 2.1 2.1h4.1c.8 0 1.5-.4 1.8-1.1l5.7-10.7 1.4-2.7c.2-.3.6-.5.9-.4l12.8 5c-.6 4 1.7 8.1 5.6 9.6 4.6 1.8 9.8-.5 11.6-5.1 1.9-4.7-.4-9.9-5-11.7"/><path id="XMLID_37_" class="st1" d="M-81.3-332.6c-.6 0-1.1.2-1.5.6-.4.4-.6.9-.6 1.5v5.5h46.3c3.8-.4 6.9-3.6 6.9-7.5l-51.1-.1z"/><path id="XMLID_36_" class="st1" d="M-81.4-316.3c-.6 0-1.1-.2-1.5-.7-.4-.4-.6-1-.6-1.5v-4.5H-39c0 3.7-2.8 6.4-6.2 6.7h-36.2z"/><path id="XMLID_35_" class="st1" d="M-74-314.4c-.2 0-.3.1-.3.3 0 .2 0 .3.2.4h.1l19.6 7.6c4.2 0 7.6-3.7 7.6-8.3H-74"/><path id="XMLID_34_" class="st2" d="M-48-343.5c0-4.9-4-8.9-8.9-8.9s-8.9 4-8.9 8.9 4 8.9 8.9 8.9 8.9-4 8.9-8.9"/><path id="XMLID_33_" class="st3" d="M-67.8-343.5c0-4.9-4-8.9-8.9-8.9s-8.9 4-8.9 8.9 4 8.9 8.9 8.9 8.9-4 8.9-8.9"/><path id="XMLID_32_" class="st4" d="M-28.4-343.5c0-4.9-4-8.9-8.9-8.9s-8.9 4-8.9 8.9 4 8.9 8.9 8.9c5 0 8.9-4 8.9-8.9"/><path id="XMLID_31_" class="st5" d="M-57.9-360.6c0-4.9-4-8.9-8.9-8.9s-8.9 4-8.9 8.9 4 8.9 8.9 8.9c4.9-.1 8.9-4 8.9-8.9"/><path id="XMLID_30_" class="st6" d="M-38.2-360.6c0-4.9-4-8.9-8.9-8.9s-8.9 4-8.9 8.9 4 8.9 8.9 8.9c4.9-.1 8.9-4 8.9-8.9"/><path id="XMLID_226_" class="st0" d="M81.8 47h1.1v5.7c0 .9.2 1.7 1.5 1.7.8 0 1.7-.4 2.1-1.2l-.4-.2c-.3.4-.6.7-1.1.7-.7 0-.7-.5-.7-.9V47H86v-.4h-1.7v-2.4c-.5.1-1 .1-1.4.1v2.3h-1.1v.4z"/><path id="XMLID_225_" class="st0" d="M88.4 53.7h-1v.4H91v-.4h-1v-3.5c0-1.4 1-3.2 2.3-3.2.8 0 1.2.2 1.2 1.6v5.1h-1v.4H96v-.4h-1v-5.4c0-1.7-1.6-1.9-2.3-1.9-1.4 0-2.1.8-2.7 2v-7.6c-.8.2-1.6.2-2.3.2h-.4v.4h1v12.3z"/><path id="XMLID_222_" class="st0" d="M97.9 49.2c0-.5.1-.9.2-1.3 0-.1.6-1.2 1.7-1.2 1 0 1.7.4 1.7 1.8v.6h-3.6zm4.9 2.6c-.3 1.3-1.5 2.2-2.6 2.2-2.1 0-2.3-1.5-2.3-3.4v-.8h5.4c0-2.1-1.5-3.4-3.4-3.4-2.3 0-3.7 2.1-3.7 4.3 0 2.1 1.9 3.7 3.8 3.7 1.7 0 3-.8 3.3-2.6h-.5z"/><path id="XMLID_221_" class="st0" d="M84.7 63.4v-2.2c0-1.9.6-3 1.5-3 .1 0 .5 0 .5.1 0 .2-.2.3-.2.5 0 .5.3.9.8.9.3 0 .7-.2.7-.6 0-.9-.9-1.2-1.6-1.2-1.8 0-3.2 1.4-3.2 4.6v.9h-1.5v.4h1.5v6.7h-1.5v.4h4.5v-.4h-1.5v-6.7h1.5v-.4h-1.5z"/><path id="XMLID_218_" class="st0" d="M91 63.6c1.9 0 1.9 2 1.9 3.6s0 3.6-1.9 3.6-1.9-2-1.9-3.6 0-3.6 1.9-3.6m0-.4c-2 0-3.7 1.7-3.7 4s1.7 4 3.7 4 3.7-1.7 3.7-4-1.7-4-3.7-4"/><path id="XMLID_215_" class="st0" d="M99.4 63.6c1.9 0 1.9 2 1.9 3.6s0 3.6-1.9 3.6-1.9-2-1.9-3.6 0-3.6 1.9-3.6m0-.4c-2 0-3.7 1.7-3.7 4s1.7 4 3.7 4 3.7-1.7 3.7-4-1.7-4-3.7-4"/><path id="XMLID_212_" class="st0" d="M111.6 70.5V57.7c-.7.1-1.4.2-2.1.2h-.6v.4h1.3v6.4c-.6-1.2-1.7-1.4-2.3-1.4-2.3 0-3.5 1.8-3.5 4s1.4 4 3.3 4c1.1 0 2-.5 2.5-1.4v1.3c.8-.1 1.7-.2 2.5-.2v-.4h-1.1zm-1.5-4.9c.1.4.1 1.3.1 1.7 0 2-.2 2.4-1 3-.2.2-.8.5-1.3.5-1.6 0-1.9-1-1.9-3.9 0-1.4.1-3.3 1.8-3.3 1.8 0 2.2 1.7 2.3 2"/><path id="XMLID_208_" class="st0" d="M85.3 76.3c1.1 0 1.3 1.1 1.3 2.1 0 1.2-.1 2.2-1.5 2.2-1 0-1.2-1.1-1.2-2 0-1.8.4-2.3 1.4-2.3M83 85.9c0-.6.6-2.2 2.9-2.2 2.4 0 2.8.5 2.8 1.7 0 .3-.1 2.1-3.4 2.1-1 0-2.3-.3-2.3-1.6m0-3.4c-.3 0-.5-.2-.5-.4 0-1 1.7-1 3.6-1.2.4 0 1.9-.6 1.9-2.4 0-.5-.3-1-.3-1.2 0-.2.2-.5.4-.5.1 0 .3.6.6.6.4 0 .6-.3.6-.7 0-.5-.4-.6-.7-.6-.6 0-1 .6-1.2 1.1-.4-.9-1.2-1.2-2.3-1.2-1.9 0-2.7 1.4-2.7 2.6 0 1.1.6 1.7 1.4 2.1-.7.1-1.9.4-1.9 1.5 0 1.4 1.1 1.5 2.1 1.6v.1c-1 .2-2.2.8-2.2 2.1 0 .8.9 2 3.7 2 1.8 0 3.9-.8 3.9-3.2 0-.6-.2-1.1-.5-1.5-.6-.7-1.1-.8-3.7-.8H83z"/><path id="XMLID_207_" class="st0" d="M92.7 76c-.7.2-1.4.2-2.1.2H90v.4h1.3v6.7H90v.4h4.2v-.4h-1.5v-3.6c0-.8.2-1.5.5-2.1.4-.9 1.1-1.1 1.1-1.1.1 0 .2 0 .2.1s-.1.2-.1.4c0 .4.4.8.7.8.4 0 .9-.2.9-.7 0-.7-.5-1.1-1.2-1.1-1 0-1.8.9-2.2 1.8V76z"/><path id="XMLID_204_" class="st0" d="M100.2 76.3c1.9 0 1.9 2 1.9 3.6s0 3.6-1.9 3.6-1.9-2-1.9-3.6c-.1-1.5 0-3.6 1.9-3.6m0-.3c-2 0-3.7 1.7-3.7 4s1.7 4 3.7 4 3.7-1.7 3.7-4c-.1-2.4-1.7-4-3.7-4"/><path id="XMLID_203_" class="st0" d="M113.3 83.3h-1.1V76c-.7.2-1.4.2-2.1.2h-.4v.4h1.1v4.3c0 1.4-1 2.5-2.3 2.5-.6 0-1.2-.2-1.2-1.4v-6c-.7.2-1.4.2-2.1.2h-.4v.4h1v5.5c0 .9.4 1.8 2.2 1.8 1.2 0 2.3-.6 2.8-1.7v1.5c.7-.1 1.4-.1 2.1-.1h.4v-.3z"/><path id="XMLID_200_" class="st0" d="M116.4 78.6c.3-1.8 1.7-2.1 2.1-2.1 1.4 0 2 .9 2 3.6 0 3.5-1 3.5-2 3.5-.6 0-1.4-.5-1.7-1.1-.3-.6-.4-.9-.4-2.1-.1-.6-.1-1.2 0-1.8m-1.6 8.9h-1.1v.5h3.9v-.4h-1.3v-4.9c.5.8 1.2 1.3 2.2 1.3 2.4 0 3.6-2 3.6-3.8 0-3-2.1-4.1-3.5-4.1-1 0-1.8.5-2.3 1.5V76c-.3.1-.7.1-1.1.2h-1.5v.4h1.1v10.9z"/><path id="XMLID_197_" class="st1" d="M67.5 80.3c-1 2.6-3.9 3.9-6.5 2.9s-3.9-3.9-2.9-6.5 3.9-3.9 6.5-2.9 3.9 3.9 2.9 6.5m-1.1-10.9c-4.3-1.7-9.1-.1-11.6 3.5l-16.7-6.5c-1.1-.4-2.3 0-2.8 1l-3 5.6-.2.4-5.3 9.9c-.1.1-.2.2-.3.2h-.2c-.2 0-.3-.2-.3-.3V63.3c0-.9-.6-1.8-1.4-2.1L1.9 52.3c-1.2-.5-2.5.1-2.9 1.3-.5 1.1 0 2.4 1 2.9l21.5 8.3-.5-.1c.3.1.4.4.4.6v20.4c0 1.3 1 2.3 2.3 2.3h4.5c.8 0 1.6-.5 2-1.2L36.4 75l1.6-3c.2-.4.6-.5 1-.4l14.1 5.5c-.6 4.4 1.8 8.8 6.1 10.5 5 2 10.7-.5 12.7-5.6 2-5-.5-10.7-5.5-12.6"/><path id="XMLID_196_" class="st1" d="M23.8 40.8c-.6 0-1.2.2-1.7.7-.4.4-.7 1-.7 1.6v6h50.7c4.2-.4 7.5-3.9 7.5-8.2l-55.8-.1z"/><path id="XMLID_195_" class="st1" d="M23.7 58.6c-.6 0-1.2-.3-1.6-.7-.4-.4-.7-1.1-.7-1.7v-4.9h48.7c0 4-3.1 7-6.8 7.3H23.7z"/><path id="XMLID_194_" class="st1" d="M31.8 60.7c-.2 0-.3.1-.4.3 0 .2 0 .3.2.4h.1l21.4 8.3c4.6 0 8.3-4.1 8.3-9.1 0 .1-29.6.1-29.6.1"/><path id="XMLID_193_" class="st2" d="M60.3 28.9c0-5.4-4.3-9.7-9.7-9.7s-9.7 4.3-9.7 9.7c0 5.4 4.3 9.7 9.7 9.7s9.7-4.4 9.7-9.7"/><path id="XMLID_192_" class="st3" d="M38.6 28.9c0-5.4-4.3-9.7-9.7-9.7-5.4 0-9.7 4.3-9.7 9.7 0 5.4 4.3 9.7 9.7 9.7 5.3 0 9.7-4.4 9.7-9.7"/><path id="XMLID_191_" class="st4" d="M81.8 28.9c0-5.4-4.3-9.7-9.7-9.7-5.4 0-9.7 4.3-9.7 9.7 0 5.4 4.3 9.7 9.7 9.7 5.3 0 9.7-4.4 9.7-9.7"/><path id="XMLID_190_" class="st5" d="M49.4 10.1c0-5.4-4.3-9.7-9.7-9.7-5.4 0-9.7 4.3-9.7 9.7 0 5.4 4.3 9.7 9.7 9.7 5.4 0 9.7-4.3 9.7-9.7"/><path id="XMLID_189_" class="st6" d="M71 10.1C71 4.7 66.7.4 61.3.4c-5.4 0-9.7 4.3-9.7 9.7 0 5.4 4.3 9.7 9.7 9.7 5.4 0 9.7-4.3 9.7-9.7"/><g id="XMLID_1_"><g id="XMLID_149_"><path id="XMLID_187_" class="st7" d="M154.8 32.1h-.3c-.1-.6-.3-1.1-.6-1.4-.2-.3-.6-.6-.9-.7-.4-.1-.9-.2-1.5-.2h-.8c-.3 0-.5 0-.7.1l-1.3 4.5h1.4c.3 0 .6-.1.8-.2.2-.1.4-.3.6-.5.2-.3.4-.6.5-1.1h.3l-.9 4.3h-.3v-.6c0-.5-.1-.9-.2-1.2-.2-.3-.5-.4-1-.4h-1.3l-1 3.6c-.2.7-.3 1.1-.3 1.3 0 .3.1.4.3.5.2.1.5.1.8.1h.4l-.1.4h-4.9l.1-.4h.2c.4 0 .7-.1.9-.2.2-.1.4-.3.4-.5.1-.2.2-.6.4-1.1l1.9-6.8c0-.1.1-.2.1-.4.1-.2.1-.4.1-.5v-.3c0-.4-.4-.6-1.1-.6h-.4l.1-.4h7.8l.5 2.7z"/><path id="XMLID_184_" class="st7" d="M159.8 36c0 .7-.2 1.4-.5 2.1-.4.8-.8 1.4-1.4 1.9-.6.5-1.2.8-1.9.8s-1.3-.2-1.7-.7c-.4-.5-.6-1-.6-1.8 0-.5.1-1.1.3-1.6.2-.6.5-1.1.8-1.6.4-.5.8-.9 1.2-1.3.5-.3 1-.5 1.5-.5.4 0 .7.1 1 .2.3.1.5.3.7.6.2.2.3.5.4.9.1.3.2.6.2 1zm-1.2-1.2c0-.3-.1-.6-.3-.9-.2-.2-.4-.4-.8-.4-.5 0-1 .3-1.4 1-.4.7-.8 1.4-1 2.3-.2.9-.4 1.6-.4 2.1 0 .4.1.7.3.9.2.2.5.3.9.3s.8-.2 1.2-.6c.3-.4.6-.9.8-1.5.2-.6.4-1.2.5-1.8.1-.4.2-1 .2-1.4z"/><path id="XMLID_182_" class="st7" d="M166.7 34c0 .2-.1.3-.2.4-.1.1-.3.2-.5.2s-.3 0-.4-.1c-.1-.1-.2-.2-.2-.4V34c0-.2 0-.2-.1-.2-.2 0-.4.2-.6.5-.2.3-.4.5-.5.7-.1.3-.3.6-.4.9-.1.3-.3.7-.4 1-.1.3-.2.7-.3 1-.1.3-.2.7-.4 1.1l-.5 1.6H161l.9-2.8c.1-.4.2-.9.3-1.5.1-.6.2-1.1.2-1.6v-.1c0-.5-.1-.8-.3-.8-.1 0-.3.1-.5.4s-.4.6-.6 1c-.2.4-.3.6-.4.7l-.4-.1c.1-.3.3-.7.5-1 .2-.4.5-.7.8-1 .3-.3.6-.4.8-.4.4 0 .7.2.8.5.2.3.3.7.3 1.1v.4c0 .1 0 .3-.1.4s0 .3 0 .4c.1-.4.3-.8.5-1.2.2-.4.5-.8.8-1.1.3-.3.6-.4 1-.4.2 0 .5.1.7.2.3-.1.4.1.4.3z"/><path id="XMLID_180_" class="st7" d="M177.7 38.2c-.1.4-.3.7-.6 1.1s-.5.7-.8 1c-.3.3-.6.4-1 .4-.3 0-.6-.1-.8-.3-.2-.2-.3-.5-.3-.8 0-.4.1-.7.2-1.1.1-.4.3-.9.5-1.5l.3-.9c.1-.4.2-.6.3-.7 0-.1.1-.3.2-.5s.1-.4.1-.5c0-.1 0-.2-.1-.3-.1-.1-.2-.1-.3-.1-.3 0-.7.2-1.1.7-.4.5-.7.9-1 1.4-.3.4-.5.9-.7 1.4-.2.5-.4 1-.6 1.6-.2.6-.4 1.1-.6 1.7h-1.2l.9-2.7c.2-.6.4-1.2.6-2 .2-.8.3-1.3.3-1.6 0-.1 0-.2-.1-.3-.1-.1-.1-.1-.2-.1-.3 0-.7.2-1 .7-.4.5-.7 1-1 1.6-.3.6-.5 1.1-.7 1.5l-1.1 3h-.9l.9-3.1c.2-.5.3-1.1.4-1.7.1-.6.2-1.1.2-1.4 0-.4-.1-.6-.3-.6-.3 0-.5.3-.9.8-.3.5-.6 1-.7 1.4l-.3-.1c.2-.7.6-1.3.9-1.8.4-.5.8-.8 1.4-.8.3 0 .5.1.7.4.2.2.2.5.2.8 0 .2 0 .4-.1.8 0 .3-.1.6-.1.7.4-.8.9-1.5 1.3-2s.9-.7 1.5-.7c.2 0 .4.1.6.2.2.1.3.2.4.4.1.2.1.4.1.6 0 .3-.1.7-.2 1.2.2-.4.5-.8.7-1.1.2-.3.5-.6.9-.9.3-.2.7-.4 1-.4.2 0 .4.1.6.2.2.1.3.3.4.5.1.2.1.4.1.6 0 .3-.1.7-.2 1.1-.1.4-.2.9-.4 1.4l-.6 1.8c-.2.6-.3.9-.3 1 0 .3.1.4.3.4.3 0 .6-.3.9-.8.4-.5.6-1 .9-1.4l.4-.2z"/><path id="XMLID_177_" class="st7" d="M183.9 34.4c0 .5-.2 1-.6 1.4-.4.4-.8.7-1.3 1-.5.2-1.1.5-1.9.9l-.3.1c-.2.6-.3 1.2-.3 1.6 0 .3.1.5.2.7.1.2.3.3.6.3s.5-.1.8-.2c.2-.1.5-.3.6-.5.2-.2.4-.4.6-.7s.4-.5.5-.7l.3.2c-.5.7-.9 1.2-1.4 1.6-.5.4-1 .6-1.6.6-.6 0-1-.2-1.4-.5-.3-.4-.5-.8-.5-1.4 0-.5.1-1.1.4-1.8.2-.6.6-1.3 1-1.8.4-.6.9-1.1 1.4-1.4.5-.4 1.1-.5 1.6-.5.4 0 .6.1.9.3s.4.4.4.8zm-1-.2c0-.2 0-.3-.1-.4-.1-.1-.2-.1-.4-.1-.4 0-.7.2-1.1.7-.3.4-.6 1-.9 1.6-.2.6-.4 1.1-.5 1.5.5-.2.9-.5 1.4-.8.5-.3.9-.7 1.2-1.1.3-.6.4-1 .4-1.4z"/><path id="XMLID_175_" class="st7" d="M190.3 34c0 .2-.1.3-.2.4-.1.1-.3.2-.5.2s-.3 0-.4-.1c-.1-.1-.2-.2-.2-.4V34c0-.2 0-.2-.1-.2-.2 0-.4.2-.6.5-.2.3-.4.5-.5.7-.1.3-.3.6-.4.9-.1.3-.3.7-.4 1-.1.3-.2.7-.3 1-.1.3-.2.7-.4 1.1l-.5 1.6h-1.3l.9-2.8c.1-.4.2-.9.3-1.5.1-.6.2-1.1.2-1.6v-.1c0-.5-.1-.8-.3-.8-.1 0-.3.1-.5.4s-.4.6-.6 1-.3.6-.4.7l-.4-.1c.1-.3.3-.7.5-1 .2-.4.5-.7.8-1 .3-.3.6-.4.8-.4.4 0 .7.2.8.5.2.3.3.7.3 1.1v.4c0 .1 0 .3-.1.4s0 .3 0 .4c.1-.4.3-.8.5-1.2.2-.4.5-.8.8-1.1.3-.3.6-.4 1-.4.2 0 .5.1.7.2.4-.1.5.1.5.3z"/><path id="XMLID_173_" class="st7" d="M194.4 29.3l-2 6.4c-.3.9-.5 1.7-.7 2.4-.2.7-.3 1.2-.3 1.6 0 .3.1.5.3.5.3 0 .6-.3.9-.8.4-.5.6-1 .8-1.3l.4.2c-.3.6-.6 1-.7 1.3-.2.3-.4.5-.7.8-.3.3-.6.4-1 .4s-.7-.1-.9-.4c-.2-.3-.3-.6-.3-1 0-.5.2-1.4.6-2.7l1.7-5.6c.1-.4.2-.6.2-.7 0-.2-.1-.3-.2-.4-.1-.1-.3-.1-.5-.1h-.5l.1-.4 2.8-.2z"/><path id="XMLID_171_" class="st7" d="M199.5 34.8c0 .6 0 1.1-.1 1.7-.1.5-.2 1.1-.4 1.6s-.4 1.1-.6 1.6c-.2.5-.5 1-.7 1.4-.6.9-1.2 1.8-2 2.7-.8.8-1.6 1.3-2.3 1.3-.2 0-.3 0-.5-.1-.1-.1-.2-.2-.2-.3 0-.4.3-.6.9-.6h.4c.3 0 .6 0 .9-.1.2-.1.5-.2.7-.5.8-.8 1.1-1.7 1.1-2.7 0-.6-.1-1.3-.2-2.1s-.3-1.5-.4-2c-.1-.4-.2-.9-.5-1.4-.2-.6-.4-.9-.6-.9-.2 0-.3.2-.4.5-.1.3-.1.6-.1.9v.7h-.4v-.7c0-.3 0-.6.1-1s.2-.7.4-.9c.2-.3.4-.4.7-.4.3 0 .5.2.7.5.2.3.4.6.6 1 .2.4.3.7.4 1.1.3 1.2.5 2.6.6 4.2.2-.4.4-.9.6-1.4.2-.5.3-1 .5-1.5.1-.5.2-.9.2-1.4 0-.4 0-.7-.1-.9-.1-.2-.2-.4-.4-.7-.2-.2-.3-.4-.3-.5 0-.2.1-.3.2-.4.1-.1.2-.1.4-.1.3 0 .5.2.6.5.2.1.2.5.2.9z"/><path id="XMLID_169_" class="st7" d="M214.5 31.9h-.3c-.2-.8-.5-1.4-.9-1.7s-.9-.5-1.5-.5h-2.2l-1.2 4.6h1.3c.3 0 .6 0 .8-.1.2-.1.4-.3.6-.5.2-.3.4-.6.6-1.1h.3l-.9 4.3h-.3v-.4-.5c0-.6-.2-.9-.5-1.1-.2-.1-.5-.2-.9-.2h-1.2l-1 3.6c-.1.4-.2.7-.2.9 0 .4.2.7.6.8.4.1.8.2 1.4.2h.6c.7 0 1.2-.1 1.6-.3.4-.2.8-.4 1.1-.8.3-.4.6-.8.9-1.5h.4l-.8 2.9H203.6l.1-.4h.2c.4 0 .7-.1.9-.2.2-.1.4-.3.5-.5.1-.2.2-.6.3-1.1l1.8-6.8c.1-.2.1-.4.1-.5 0-.1.1-.2.1-.4s.1-.3.1-.4c0-.3-.1-.4-.4-.5-.2-.1-.5-.1-.9-.1l.1-.4h7.7l.3 2.7z"/><path id="XMLID_167_" class="st7" d="M226 38.2c-.1.4-.3.7-.6 1.1s-.5.7-.8 1c-.3.3-.6.4-1 .4-.3 0-.6-.1-.8-.3-.2-.2-.3-.5-.3-.8 0-.4.1-.7.2-1.1.1-.4.3-.9.5-1.5l.3-.9c.1-.4.2-.6.3-.7 0-.1.1-.3.2-.5s.1-.4.1-.5c0-.1 0-.2-.1-.3-.1-.1-.2-.1-.3-.1-.3 0-.7.2-1.1.7-.4.5-.7.9-1 1.4-.3.4-.5.9-.7 1.4-.2.5-.4 1-.6 1.6-.2.6-.4 1.1-.6 1.7h-1.2l.9-2.7c.2-.6.4-1.2.6-2 .2-.8.3-1.3.3-1.6 0-.1 0-.2-.1-.3-.1-.1-.1-.1-.2-.1-.3 0-.7.2-1 .7-.4.5-.7 1-1 1.6-.3.6-.5 1.1-.7 1.5l-1.1 3h-1.1l.9-3.1c.2-.5.3-1.1.4-1.7.1-.6.2-1.1.2-1.4 0-.4-.1-.6-.3-.6-.3 0-.5.3-.9.8-.3.5-.6 1-.7 1.4l-.3-.1c.2-.7.6-1.3.9-1.8.4-.5.8-.8 1.4-.8.3 0 .5.1.7.4.2.2.2.5.2.8 0 .2 0 .4-.1.8 0 .3-.1.6-.1.7.4-.8.9-1.5 1.3-2s.9-.7 1.5-.7c.2 0 .4.1.6.2.2.1.3.2.4.4.1.2.1.4.1.6 0 .3-.1.7-.2 1.2.2-.4.5-.8.7-1.1.2-.3.5-.6.9-.9.3-.2.7-.4 1-.4.2 0 .4.1.6.2.2.1.3.3.4.5.1.2.1.4.1.6 0 .3-.1.7-.2 1.1-.1.4-.2.9-.4 1.4l-.6 1.8c-.2.6-.3.9-.3 1 0 .3.1.4.3.4.3 0 .6-.3.9-.8.4-.5.6-1 .9-1.4l.6-.2z"/><path id="XMLID_164_" class="st7" d="M232.1 34.4c0 .5-.2 1-.6 1.4-.4.4-.8.7-1.3 1s-1.1.5-1.9.9l-.3.1c-.2.6-.3 1.2-.3 1.6 0 .3.1.5.2.7.1.2.3.3.6.3s.5-.1.8-.2c.2-.1.5-.3.6-.5.2-.2.4-.4.6-.7s.4-.5.5-.7l.3.2c-.5.7-.9 1.2-1.4 1.6-.5.4-1 .6-1.6.6-.6 0-1-.2-1.4-.5-.3-.4-.5-.8-.5-1.4 0-.5.1-1.1.3-1.8s.6-1.3 1-1.8c.4-.6.9-1.1 1.4-1.4.5-.4 1.1-.5 1.6-.5.4 0 .6.1.9.3.4.2.5.4.5.8zm-.9-.2c0-.2 0-.3-.1-.4-.1-.1-.2-.1-.4-.1-.4 0-.7.2-1.1.7-.3.4-.6 1-.9 1.6-.3.6-.4 1.1-.5 1.5.5-.2.9-.5 1.4-.8.5-.3.9-.7 1.2-1.1.2-.6.4-1 .4-1.4z"/><path id="XMLID_162_" class="st7" d="M238.5 34c0 .2-.1.3-.2.4-.1.1-.3.2-.5.2s-.3 0-.4-.1c-.1-.1-.2-.2-.2-.4V34c0-.2 0-.2-.1-.2-.2 0-.4.2-.6.5-.2.3-.4.5-.5.7-.1.3-.3.6-.4.9-.1.3-.3.7-.4 1-.1.3-.2.7-.3 1-.1.3-.2.7-.4 1.1l-.5 1.6h-1.3l.9-2.8c.1-.4.2-.9.3-1.5.1-.6.2-1.1.2-1.6v-.1c0-.5-.1-.8-.3-.8-.1 0-.3.1-.5.4s-.4.6-.6 1-.3.6-.4.7l-.4-.1c.1-.3.3-.7.5-1 .2-.4.5-.7.8-1 .3-.3.6-.4.8-.4.4 0 .7.2.8.5.2.3.3.7.3 1.1v.4c0 .1 0 .3-.1.4s0 .3 0 .4c.1-.4.3-.8.5-1.2.2-.4.5-.8.8-1.1.3-.3.6-.4 1-.4.2 0 .5.1.7.2.4-.1.5.1.5.3z"/><path id="XMLID_159_" class="st7" d="M246 34.2c0 .2-.1.3-.2.5-.1.1-.3.2-.5.2-.1 0-.3 0-.4-.1-.1-.1-.2-.2-.2-.4v-.2s0-.1-.1-.1c0 0-.1-.1-.2-.1s-.2 0-.3.1c-.1.1-.2.2-.4.3.1.3.2.6.2.9 0 .5-.1.9-.2 1.3-.2.4-.4.8-.7 1.1-.3.3-.6.6-1 .8s-.8.3-1.3.3c-1.2 0-1.8.2-1.8.7 0 .3.3.5.9.7l1.8.3c.6.1 1.1.3 1.6.6s.7.8.7 1.5c0 .4-.1.8-.3 1.1-.2.3-.5.6-.8.7-.3.2-.7.3-1.1.4-.4.1-.8.1-1.3.1-.9 0-1.6-.2-2.3-.5-.7-.3-1-.9-1-1.6 0-.2.1-.4.2-.6.1-.2.3-.3.4-.4.2-.1.4-.2.6-.2.2 0 .4.1.7.2-.3.1-.5.2-.6.5-.2.2-.2.5-.2.7 0 .6.2 1 .7 1.3.5.3 1 .4 1.7.4.6 0 1.2-.1 1.7-.4s.8-.6.8-1.2c0-.5-.2-.8-.5-1-.3-.1-.9-.3-1.6-.4-.2 0-.5-.1-.9-.1-.4-.1-.7-.2-1-.3-.3-.1-.6-.3-.8-.5-.2-.2-.3-.5-.3-.8 0-.8.6-1.4 1.8-1.6-.3-.2-.6-.5-.8-.8-.2-.3-.3-.7-.3-1 0-.5.2-1.1.5-1.6s.7-1 1.2-1.3c.5-.3 1-.5 1.6-.5.7 0 1.3.3 1.7.8.5-.5.9-.7 1.3-.7.3 0 .5.1.7.3.2.1.3.4.3.6zm-3.2.6c0-.3-.1-.6-.3-.8-.2-.2-.4-.4-.7-.4-.3 0-.6.1-.8.4-.3.3-.5.6-.6 1-.2.4-.3.8-.4 1.2-.1.4-.1.8-.1 1.1 0 .3.1.6.3.9.2.2.4.4.8.4s.8-.2 1.1-.6.5-.9.6-1.5c0-.8.1-1.3.1-1.7z"/><path id="XMLID_156_" class="st7" d="M251 34.4c0 .5-.2 1-.6 1.4-.4.4-.8.7-1.3 1s-1.1.5-1.9.9l-.3.1c-.2.6-.3 1.2-.3 1.6 0 .3.1.5.2.7.1.2.3.3.6.3s.5-.1.8-.2c.2-.1.5-.3.6-.5.2-.2.4-.4.6-.7s.4-.5.5-.7l.3.2c-.5.7-.9 1.2-1.4 1.6-.5.4-1 .6-1.6.6-.6 0-1-.2-1.4-.5-.3-.4-.5-.8-.5-1.4 0-.5.1-1.1.3-1.8s.6-1.3 1-1.8c.4-.6.9-1.1 1.4-1.4.5-.4 1.1-.5 1.6-.5.4 0 .6.1.9.3.3.2.5.4.5.8zm-1-.2c0-.2 0-.3-.1-.4-.1-.1-.2-.1-.4-.1-.4 0-.7.2-1.1.7-.3.4-.6 1-.9 1.6-.3.6-.4 1.1-.5 1.5.5-.2.9-.5 1.4-.8.5-.3.9-.7 1.2-1.1.3-.6.4-1 .4-1.4z"/><path id="XMLID_154_" class="st7" d="M259.8 38.3c-.8 1.6-1.6 2.5-2.4 2.5-.4 0-.6-.1-.8-.3-.2-.2-.3-.5-.3-.9 0-.2 0-.5.1-.8.1-.3.2-.6.2-.8.1-.3.2-.5.3-.8l.3-.8c.1-.2.2-.4.3-.7.1-.2.2-.5.2-.7.1-.2.1-.4.1-.6 0-.2-.1-.3-.2-.4-.1-.1-.2-.2-.4-.2-.4 0-.8.2-1.2.7-.4.5-.8 1-1.1 1.5l-.6 1.2c-.2.4-.4.9-.5 1.3-.2.4-.3.9-.5 1.5l-.1.5h-1.3l.4-1.1c.3-.9.6-1.8.9-2.8.3-1 .4-1.8.4-2.3 0-.4-.1-.5-.3-.5-.2 0-.4.1-.6.4-.2.3-.4.6-.6 1-.2.4-.3.7-.4.9l-.3-.1c.3-.6.5-1 .6-1.4.2-.3.4-.6.7-.9.3-.3.6-.4 1-.4.3 0 .6.1.8.3.2.2.3.5.3.8 0 .4 0 .8-.1 1.2v.3c.4-.8.8-1.4 1.3-2 .5-.5 1-.8 1.7-.8.2 0 .5.1.7.2.2.1.4.3.5.5.1.2.2.4.2.7 0 .7-.2 1.5-.6 2.5l-.3.8c0 .1-.1.3-.2.6s-.2.5-.3.7c-.1.2-.1.3-.1.4s0 .2.1.3c.1.1.2.2.3.2.2 0 .4-.1.6-.4.2-.3.4-.5.6-.9.2-.3.3-.6.4-.9l.2.5z"/><path id="XMLID_152_" class="st7" d="M266.3 34.2c0 .2-.1.4-.2.5-.1.1-.3.2-.5.2s-.3-.1-.4-.2c-.1-.1-.2-.3-.2-.4 0-.1 0-.2.1-.3.1-.1.1-.2.1-.2 0-.1-.1-.2-.4-.2-.4 0-.8.2-1.1.6-.4.4-.7 1-.9 1.6s-.5 1.3-.6 1.9c-.2.6-.2 1.1-.2 1.4 0 .3.1.6.2.8.2.2.4.4.7.4.9 0 1.7-.7 2.4-2.2l.3.2c-.8 1.6-1.8 2.3-2.9 2.3-.6 0-1.1-.2-1.4-.6-.3-.4-.5-1-.5-1.6 0-.5.1-1.1.4-1.7.2-.6.5-1.2.9-1.7s.8-1 1.4-1.3c.5-.3 1.1-.5 1.6-.5.3 0 .6.1.9.3s.3.4.3.7z"/><path id="XMLID_150_" class="st7" d="M272 34.8c0 .6 0 1.1-.1 1.7-.1.5-.2 1.1-.4 1.6s-.4 1.1-.6 1.6c-.2.5-.5 1-.7 1.4-.6.9-1.2 1.8-2 2.7s-1.6 1.3-2.3 1.3c-.2 0-.3 0-.5-.1-.1-.1-.2-.2-.2-.3 0-.4.3-.6.9-.6h.4c.3 0 .6 0 .9-.1.2-.1.5-.2.7-.5.8-.8 1.1-1.7 1.1-2.7 0-.6-.1-1.3-.2-2.1s-.3-1.5-.4-2c-.1-.4-.2-.9-.5-1.4-.2-.6-.4-.9-.6-.9-.2 0-.3.2-.4.5-.1.3-.1.6-.1.9v.7h-.4v-.7c0-.3 0-.6.1-1s.2-.7.4-.9c.2-.3.4-.4.7-.4.3 0 .5.2.7.5.2.3.4.6.6 1 .2.4.3.7.4 1.1.3 1.2.5 2.6.6 4.2.2-.4.4-.9.6-1.4.2-.5.3-1 .5-1.5.1-.5.2-.9.2-1.4 0-.4 0-.7-.1-.9-.1-.2-.2-.4-.4-.7-.2-.2-.3-.4-.3-.5 0-.2.1-.3.2-.4.1-.1.2-.1.4-.1.3 0 .5.2.6.5.2.1.2.5.2.9z"/></g><g id="XMLID_109_"><path id="XMLID_147_" class="st7" d="M160.1 52.3h-.3c-.1-.6-.3-1.1-.6-1.4-.2-.3-.6-.6-.9-.7-.4-.1-.9-.2-1.5-.2h-.8c-.3 0-.5 0-.7.1l-1.3 4.5h1.4c.3 0 .6-.1.8-.2.2-.1.4-.3.6-.5.2-.3.4-.6.5-1.1h.3l-.9 4.3h-.3v-.6c0-.5-.1-.9-.2-1.2-.2-.3-.5-.4-1-.4h-1.3l-1 3.6c-.2.7-.3 1.1-.3 1.3 0 .3.1.4.3.5.2.1.5.1.8.1h.4l-.1.4h-4.9l.1-.4h.2c.4 0 .7-.1.9-.2.2-.1.4-.3.4-.5.1-.2.2-.6.4-1.1l1.9-6.8c0-.1.1-.2.1-.4.1-.2.1-.4.1-.5v-.3c0-.4-.4-.6-1.1-.6h-.3.2l.1-.4h7.8l.2 2.7z"/><path id="XMLID_144_" class="st7" d="M165.1 56.2c0 .7-.2 1.4-.5 2.1-.4.8-.8 1.4-1.4 1.9-.6.5-1.2.8-1.9.8s-1.3-.2-1.7-.7c-.4-.5-.6-1-.6-1.8 0-.5.1-1.1.3-1.6.2-.6.5-1.1.8-1.6.4-.5.8-.9 1.2-1.3.5-.3 1-.5 1.5-.5.4 0 .7.1 1 .2.3.1.5.3.7.6.2.2.3.5.4.9.1.3.2.6.2 1zm-1.2-1.1c0-.3-.1-.6-.3-.9-.2-.2-.4-.4-.8-.4-.5 0-1 .3-1.4 1-.4.7-.8 1.4-1 2.3-.2.9-.4 1.6-.4 2.1 0 .4.1.7.3.9.2.2.5.3.9.3s.8-.2 1.2-.6c.3-.4.6-.9.8-1.5.2-.6.4-1.2.5-1.8.1-.5.2-1 .2-1.4z"/><path id="XMLID_141_" class="st7" d="M172.2 56.2c0 .7-.2 1.4-.5 2.1-.4.8-.8 1.4-1.4 1.9-.6.5-1.2.8-1.9.8s-1.3-.2-1.7-.7c-.4-.5-.6-1-.6-1.8 0-.5.1-1.1.3-1.6.2-.6.5-1.1.8-1.6.4-.5.8-.9 1.2-1.3.5-.3 1-.5 1.5-.5.4 0 .7.1 1 .2.3.1.5.3.7.6.2.2.3.5.4.9.1.3.2.6.2 1zm-1.3-1.1c0-.3-.1-.6-.3-.9-.2-.2-.4-.4-.8-.4-.5 0-1 .3-1.4 1-.4.7-.8 1.4-1 2.3-.2.9-.4 1.6-.4 2.1 0 .4.1.7.3.9.2.2.5.3.9.3s.8-.2 1.2-.6c.3-.4.6-.9.8-1.5.2-.6.4-1.2.5-1.8.2-.5.2-1 .2-1.4z"/><path id="XMLID_138_" class="st7" d="M181 49.5l-.8 2.9-.7 2.6c-.1.4-.2.9-.4 1.5-.2.7-.3 1.3-.4 1.9-.1.6-.2 1.1-.2 1.5 0 .3.1.5.3.5.2 0 .5-.3.9-.8.3-.5.6-1 .8-1.5l.4.1c-.1.4-.3.8-.6 1.2s-.5.8-.8 1.1c-.3.3-.6.4-1 .4-.3 0-.6-.1-.7-.3-.2-.2-.3-.5-.3-.8 0-.2 0-.6.1-1.1-.3.6-.7 1.2-1.1 1.6-.4.4-.9.6-1.4.6-.6 0-1.1-.2-1.4-.6-.4-.4-.5-.9-.5-1.5 0-.5.1-1.1.4-1.7.2-.6.6-1.2 1-1.8.4-.6.9-1 1.4-1.3.5-.3 1.1-.5 1.6-.5.2 0 .5.1.6.2.2.1.3.3.4.5l.8-2.8c.1-.5.2-.9.2-.9 0-.1 0-.2-.1-.3-.1-.1-.2-.1-.3-.1h-.8l.1-.4 2.5-.2zm-2.8 5.4c0-.3-.1-.5-.2-.7-.1-.2-.3-.3-.6-.3-.4 0-.8.2-1.2.6-.4.4-.7 1-1 1.6-.3.6-.6 1.3-.7 1.9-.2.6-.3 1.1-.3 1.5 0 .3.1.6.2.8.2.2.4.3.7.3.4 0 .8-.2 1.2-.6.4-.4.7-1 1-1.6.3-.7.5-1.3.7-1.9.1-.8.2-1.3.2-1.6z"/><path id="XMLID_136_" class="st7" d="M186.4 54.5c0 .1 0 .2-.1.3-.1.1-.2.1-.3.1-.2 0-.3 0-.3-.1s-.1-.2-.1-.4-.1-.4-.2-.4c-.1-.1-.3-.1-.6-.1s-.6.1-.8.3c-.2.2-.3.4-.3.7 0 .3.1.5.2.7.1.2.4.5.7 1 .4.5.6.8.8 1.2.2.3.3.7.3 1.1 0 .7-.2 1.2-.7 1.6-.5.4-1.1.6-1.8.6-.5 0-1-.1-1.4-.3-.4-.2-.6-.6-.6-1s.1-.6.4-.6c.1 0 .3 0 .4.1.1.1.2.2.2.4v.5c0 .2.1.4.3.5.2.1.5.2.7.2.4 0 .8-.1 1.1-.3.3-.2.4-.5.4-.9 0-.3-.1-.5-.2-.8-.2-.3-.4-.6-.7-1-.3-.4-.6-.8-.7-1.1-.2-.3-.2-.6-.2-.9 0-.6.2-1.1.7-1.5.5-.4 1-.5 1.7-.5.2 0 .5 0 .7.1.3.1.5.2.6.3-.3-.2-.2 0-.2.2z"/><path id="XMLID_134_" class="st7" d="M194.7 58.5l-.6 1.2c-.2.4-.5.7-.8.9-.3.3-.7.4-1 .4-.7 0-1-.4-1-1.1 0-.6.2-1.4.6-2.3l.3-.9c.4-1 .6-1.7.6-2 0-.2 0-.3-.1-.4-.1-.1-.2-.1-.4-.1-.5 0-1.1.4-1.6 1.1-.5.7-1 1.5-1.3 2.3-.4.8-.7 1.6-.9 2.4l-.3.9H187l2.7-9.2c.1-.4.2-.8.2-1 0-.2-.1-.4-.3-.4-.2-.1-.4-.1-.7-.1h-.2l.1-.4 2.7-.2-1.8 6.2c.4-.5.7-.9.9-1.2.2-.3.5-.5.8-.7.3-.2.7-.3 1.1-.3.8 0 1.2.5 1.2 1.4 0 .6-.2 1.4-.5 2.4l-.7 2c-.1.4-.2.7-.2.8 0 .2.1.3.3.3.2 0 .4-.1.7-.4.2-.3.5-.5.7-.9.2-.3.4-.6.5-.9l.2.2z"/><path id="XMLID_131_" class="st7" d="M201 54.6c0 .5-.2 1-.6 1.4-.4.4-.8.7-1.3 1-.5.2-1.1.5-1.9.9l-.3.1c-.2.6-.3 1.2-.3 1.6 0 .3.1.5.2.7.1.2.3.3.6.3s.5-.1.8-.2c.2-.1.5-.3.6-.5.2-.2.4-.4.6-.7s.4-.5.5-.7l.3.2c-.5.7-.9 1.2-1.4 1.6-.5.4-1 .6-1.6.6-.6 0-1-.2-1.4-.5-.3-.4-.5-.8-.5-1.4 0-.5.1-1.1.4-1.8.2-.6.6-1.3 1-1.8.4-.6.9-1.1 1.4-1.4.5-.4 1.1-.5 1.6-.5.4 0 .6.1.9.3s.4.5.4.8zm-1-.2c0-.2 0-.3-.1-.4-.1-.1-.2-.1-.4-.1-.4 0-.7.2-1.1.7-.3.4-.6 1-.9 1.6-.2.6-.4 1.1-.5 1.5.5-.2.9-.5 1.4-.8.5-.3.9-.7 1.2-1.1.3-.5.4-1 .4-1.4z"/><path id="XMLID_129_" class="st7" d="M205.7 49.5l-2 6.4c-.3.9-.5 1.7-.7 2.4-.2.7-.3 1.2-.3 1.6 0 .3.1.5.3.5.3 0 .6-.3.9-.8.4-.5.6-1 .8-1.3l.4.2c-.3.6-.6 1-.7 1.3-.2.3-.4.5-.7.8-.3.3-.6.4-1 .4s-.7-.1-.9-.4c-.2-.3-.3-.6-.3-1 0-.5.2-1.4.6-2.7l1.7-5.6c.1-.4.2-.6.2-.7 0-.2-.1-.3-.2-.4-.1-.1-.3-.1-.5-.1h-.5l.1-.4 2.8-.2z"/><path id="XMLID_127_" class="st7" d="M212.6 50.5c0 .1 0 .3-.1.3s-.2.1-.3.1c-.3 0-.5-.2-.6-.6 0-.2-.1-.3-.2-.4-.1-.1-.2-.1-.3-.1-.3 0-.6.1-.8.4-.2.3-.4.6-.6 1.1-.2.4-.3.8-.4 1.2-.1.4-.2.8-.3 1.1h1.5l-.1.4H209l-1.4 5.5c-.2.8-.4 1.5-.5 2-.1.5-.4 1.1-.6 1.7-.3.6-.7 1.1-1.1 1.5-.4.4-1 .6-1.6.6-.4 0-.7-.1-1-.3-.3-.2-.5-.4-.5-.7 0-.1 0-.2.1-.3.1-.1.2-.1.3-.1.2 0 .3 0 .3.1.1.1.1.2.2.4s.1.3.2.4c.1.1.2.1.4.1s.3-.1.5-.2c.1-.1.3-.3.4-.5l.3-.6c.1-.2.2-.4.2-.5l2.3-9.1h-1.4l.1-.4h1.4c.3-.9.5-1.6.7-2.1.2-.5.5-1 1-1.4.4-.4 1-.6 1.6-.6.3 0 .7.1 1 .3.6.1.7.4.7.7z"/><path id="XMLID_125_" class="st7" d="M227.7 49.6l-.1.4c-.4 0-.7.1-.9.2-.2.2-.4.4-.5.6-.1.2-.2.6-.4 1l-2.4 9.2h-.4l-4.7-9.4-1.3 4.9c-.4 1.5-.6 2.5-.6 3 0 .3.1.5.2.6.1.1.3.2.5.2s.5.1.8.1l-.1.4h-3.9l.1-.4c.5-.1.8-.1 1-.2.2-.1.4-.3.6-.6.2-.3.3-.8.5-1.3.1-.5.3-1.1.5-1.9l1.4-5.3c-.2-.4-.3-.6-.5-.8-.1-.1-.2-.2-.4-.3-.2 0-.5-.1-.9-.1l.1-.4h2.6l4.5 9.1 1.5-5.5c.1-.3.2-.7.3-1.2.1-.4.1-.8.1-1 0-.3-.1-.5-.2-.6-.1-.1-.3-.2-.5-.3s-.3 0-.6 0l.1-.4H227.7z"/><path id="XMLID_122_" class="st7" d="M232 54.6c0 .5-.2 1-.6 1.4-.4.4-.8.7-1.3 1s-1.1.5-1.9.9l-.3.1c-.2.6-.3 1.2-.3 1.6 0 .3.1.5.2.7.1.2.3.3.6.3s.5-.1.8-.2c.2-.1.5-.3.6-.5.2-.2.4-.4.6-.7s.4-.5.5-.7l.3.2c-.5.7-.9 1.2-1.4 1.6-.5.4-1 .6-1.6.6-.6 0-1-.2-1.4-.5-.3-.4-.5-.8-.5-1.4 0-.5.1-1.1.3-1.8s.6-1.3 1-1.8c.4-.6.9-1.1 1.4-1.4.5-.4 1.1-.5 1.6-.5.4 0 .6.1.9.3.4.2.5.5.5.8zm-.9-.2c0-.2 0-.3-.1-.4-.1-.1-.2-.1-.4-.1-.4 0-.7.2-1.1.7-.3.4-.6 1-.9 1.6-.3.6-.4 1.1-.5 1.5.5-.2.9-.5 1.4-.8.5-.3.9-.7 1.2-1.1.2-.5.4-1 .4-1.4z"/><path id="XMLID_120_" class="st7" d="M236.7 53.7l-.1.4h-1.3l-.1.4c-.2.6-.5 1.6-.8 3-.4 1.4-.6 2.2-.6 2.5 0 .1 0 .3.1.3 0 .1.1.1.2.1.2 0 .3-.1.5-.3.2-.2.3-.4.5-.6.2-.2.3-.5.4-.7l.3-.6.3.2c-.2.4-.4.7-.5 1-.1.2-.3.5-.5.7-.2.2-.4.5-.6.6-.2.2-.5.2-.8.2-.3 0-.6-.1-.8-.3-.2-.2-.3-.5-.3-.8v-.5c0-.2.1-.4.2-.7.1-.3.1-.5.2-.7.1-.2.1-.4.1-.5l1-3.3h-1.3l.1-.4h1.3l.8-2.3h1.2l-.7 2.3h1.2z"/><path id="XMLID_118_" class="st7" d="M247.1 54.7c0 .7-.2 1.6-.5 2.6s-.8 1.8-1.4 2.6c-.6.7-1.3 1.1-2.1 1.1-.4 0-.8-.1-1-.4-.3-.3-.4-.7-.4-1.1-.3.4-.6.8-1.1 1.1-.4.3-.9.4-1.4.4-.5 0-.9-.1-1.2-.4-.3-.3-.5-.7-.5-1.1 0-.4.1-.9.4-1.4.2-.5.5-1.1.9-1.6s.7-1 1-1.5c-.1 0-.1.1-.2.1s-.1.1-.2.1-.2.1-.3.1h-.3-.4s-.1 0-.2-.1c-.2-.1-.4-.1-.4-.1-.1 0-.2 0-.2.1s-.1.2-.1.3v.1c0 .1 0 .1-.1.1s-.2-.1-.2-.2c0-.2-.1-.3-.1-.4 0-.3.1-.6.3-.8.2-.2.4-.3.7-.3.2 0 .3 0 .4.1.1.1.2.2.4.3.2.1.3.2.4.2.3 0 .5 0 .6-.1.1-.1.2-.2.2-.3 0-.1.1-.3.1-.4.1-.1.1-.2.3-.2.1 0 .1 0 .2.1s.1.1.1.2 0 .2-.1.3c-.1.1-.1.2-.2.4-.1.1-.1.2-.2.3-.2.3-.4.7-.6 1.3-.2.5-.4 1.1-.5 1.6-.1.5-.2 1-.2 1.4 0 .4.1.8.2 1.1.1.3.4.5.7.5.6 0 1-.4 1.4-1.1.3-.7.6-1.6.9-2.6l.2-.8s.1-.3.2-.7c.1-.4.2-.7.3-.8.1-.2.3-.3.5-.3s.3.1.4.2c.1.1.2.2.2.4s-.2.9-.5 2.1c-.4 1.2-.5 2-.5 2.5 0 .3.1.6.2.8.1.2.3.4.6.4.5 0 .9-.3 1.3-.8s.7-1.1.9-1.8.3-1.3.3-1.7c0-.3 0-.8-.1-1.3-.1-.3-.1-.5-.1-.6 0-.5.2-.8.6-.8.1-.4.4 0 .4.8z"/><path id="XMLID_115_" class="st7" d="M254.1 56.2c0 .7-.2 1.4-.5 2.1-.4.8-.8 1.4-1.4 1.9-.6.5-1.2.8-1.9.8s-1.3-.2-1.7-.7c-.4-.5-.6-1-.6-1.8 0-.5.1-1.1.3-1.6.2-.6.5-1.1.8-1.6.4-.5.8-.9 1.2-1.3.5-.3 1-.5 1.5-.5.4 0 .7.1 1 .2.3.1.5.3.7.6.2.2.3.5.4.9.1.3.2.6.2 1zm-1.2-1.1c0-.3-.1-.6-.3-.9-.2-.2-.4-.4-.8-.4-.5 0-1 .3-1.4 1-.4.7-.8 1.4-1 2.3-.2.9-.4 1.6-.4 2.1 0 .4.1.7.3.9.2.2.5.3.9.3s.8-.2 1.2-.6c.3-.4.6-.9.8-1.5.2-.6.4-1.2.5-1.8.1-.5.2-1 .2-1.4z"/><path id="XMLID_113_" class="st7" d="M261 54.2c0 .2-.1.3-.2.4-.1.1-.3.2-.5.2s-.3 0-.4-.1c-.1-.1-.2-.2-.2-.4v-.1c0-.2 0-.2-.1-.2-.2 0-.4.2-.6.5-.2.3-.4.5-.5.7-.1.3-.3.6-.4.9-.1.3-.3.7-.4 1-.1.3-.2.7-.3 1-.1.3-.2.7-.4 1.1l-.5 1.6h-1.3l.9-2.8c.1-.4.2-.9.3-1.5.1-.6.2-1.1.2-1.6v-.1c0-.5-.1-.8-.3-.8-.1 0-.3.1-.5.4-.2.3-.4.6-.6 1-.2.4-.3.6-.4.7l-.4-.1c.1-.3.3-.7.5-1 .2-.4.5-.7.8-1s.6-.4.8-.4c.4 0 .7.2.8.5.2.3.3.7.3 1.1V55v.3c0 .1 0 .3-.1.4v.4c.1-.4.3-.8.5-1.2.2-.4.5-.8.8-1.1s.6-.4 1-.4c.2 0 .5.1.7.2.4.2.5.4.5.6z"/><path id="XMLID_110_" class="st7" d="M267.3 58.8c-.2.5-.4.9-.5 1.1-.1.3-.3.5-.6.7-.3.2-.6.3-.9.3-.3 0-.6-.1-.8-.3-.2-.2-.3-.5-.3-.8v-.7-1c0-.3 0-.5-.1-.6s-.2-.2-.5-.3l-1.3.6-.8 2.9h-1.3l2.6-9.7c.1-.3.1-.5.1-.6 0-.2-.3-.4-.9-.4h-.5l.1-.4 2.8-.2c-.1.2-.2.6-.3 1-.1.5-.2.8-.3 1l-.9 3.6c.4-.5.8-.9 1.2-1.3.4-.3.9-.5 1.4-.5.2 0 .4 0 .6.1.2.1.4.2.5.4.1.2.2.3.2.5 0 .4-.1.7-.4 1-.3.3-.6.5-1.1.8-.4.2-.9.5-1.3.7.5.1.9.4 1 .6.2.3.3.7.3 1.2V59.7c0 .3.1.4.3.4.2 0 .3-.1.5-.3.2-.2.3-.5.4-.7.1-.3.3-.5.4-.8l.4.5zm-1.6-4.3c0-.2 0-.3-.1-.4-.1-.1-.2-.1-.4-.1-.6 0-1.1.4-1.6 1.1-.5.8-.9 1.5-1.1 2.3.9-.3 1.6-.8 2.3-1.2.6-.6.9-1.1.9-1.7z"/></g></g></svg>