<?xml version="1.0" standalone="no"?>
<!DOCTYPE svg PUBLIC "-//W3C//DTD SVG 20010904//EN"
 "http://www.w3.org/TR/2001/REC-SVG-20010904/DTD/svg10.dtd">
<svg version="1.0" xmlns="http://www.w3.org/2000/svg"
 width="260.000000pt" height="260.000000pt" viewBox="0 0 260.000000 260.000000"
 preserveAspectRatio="xMidYMid meet">
<metadata>
Created by potrace 1.11, written by Peter Selinger 2001-2013
</metadata>
<g transform="translate(0.000000,260.000000) scale(0.100000,-0.100000)"
fill="#000000" stroke="none">
<path d="M1085 2561 c-103 -47 -156 -125 -163 -241 -4 -67 -1 -85 20 -131 29
-63 73 -111 132 -142 59 -31 193 -31 252 0 66 35 101 70 131 130 68 141 9 312
-132 379 -64 31 -179 33 -240 5z"/>
<path d="M1725 2567 c-148 -57 -220 -212 -168 -363 22 -66 101 -145 167 -167
112 -38 221 -13 303 68 178 179 51 477 -202 474 -38 0 -84 -6 -100 -12z"/>
<path d="M809 2037 c-76 -22 -152 -89 -185 -165 -25 -57 -22 -168 5 -224 105
-219 416 -221 517 -3 31 66 33 170 3 235 -56 125 -207 195 -340 157z"/>
<path d="M1440 2037 c-60 -17 -114 -51 -145 -91 -114 -149 -73 -349 89 -434
43 -23 63 -27 131 -26 118 0 195 45 250 146 25 45 29 64 30 128 0 62 -5 85
-28 132 -58 118 -200 181 -327 145z"/>
<path d="M2058 2037 c-123 -35 -208 -146 -208 -273 0 -105 55 -196 151 -249
47 -26 64 -30 134 -29 118 0 195 45 250 146 26 46 30 63 30 133 0 86 -16 129
-70 193 -57 68 -192 105 -287 79z"/>
<path d="M720 1423 c-44 -16 -50 -33 -50 -140 l0 -103 743 0 c496 0 755 4 781
11 45 12 118 76 140 123 8 18 18 51 22 74 l7 42 -814 -1 c-448 0 -821 -3 -829
-6z"/>
<path d="M670 1040 c0 -144 -69 -130 646 -130 l606 0 49 26 c60 33 100 89 107
149 l5 45 -707 0 -706 0 0 -90z"/>
<path d="M37 1082 c-25 -28 -22 -88 6 -106 12 -8 152 -65 312 -126 160 -62
296 -115 303 -117 9 -4 12 -77 12 -318 0 -371 -8 -348 124 -353 52 -2 90 2
105 10 17 9 62 83 143 233 64 121 122 221 127 223 6 2 100 -31 211 -74 l200
-77 0 -43 c0 -102 72 -209 170 -253 68 -31 180 -29 248 5 59 29 107 79 134
141 26 59 26 167 0 225 -81 184 -326 233 -465 94 l-36 -36 -251 97 c-240 93
-253 96 -278 82 -20 -10 -62 -80 -152 -247 -68 -128 -128 -232 -132 -232 -4 0
-8 134 -8 298 0 284 -1 300 -20 317 -25 23 -677 275 -711 275 -14 0 -33 -8
-42 -18z m1887 -616 c70 -29 99 -108 67 -180 -63 -144 -276 -85 -258 71 5 47
24 75 72 104 36 22 74 24 119 5z"/>
<path d="M960 843 c0 -14 67 -43 308 -136 170 -65 322 -117 340 -117 104 0
205 102 219 221 l6 49 -437 0 c-409 0 -436 -1 -436 -17z"/>
</g>
</svg>
